<svg xmlns="http://www.w3.org/2000/svg" xmlns:xlink="http://www.w3.org/1999/xlink" width="500" zoomAndPan="magnify" viewBox="0 0 375 374.999991" height="500" preserveAspectRatio="xMidYMid meet" version="1.0"><path fill="#ffffff" d="M 39.0625 187.5 C 39.0625 185.070312 39.121094 182.644531 39.242188 180.214844 C 39.359375 177.789062 39.539062 175.367188 39.777344 172.949219 C 40.015625 170.53125 40.3125 168.121094 40.667969 165.71875 C 41.027344 163.316406 41.441406 160.925781 41.914062 158.542969 C 42.386719 156.160156 42.921875 153.789062 43.511719 151.433594 C 44.101562 149.074219 44.75 146.734375 45.453125 144.410156 C 46.160156 142.085938 46.921875 139.78125 47.738281 137.492188 C 48.558594 135.207031 49.433594 132.941406 50.363281 130.695312 C 51.292969 128.449219 52.277344 126.230469 53.3125 124.035156 C 54.351562 121.839844 55.445312 119.667969 56.589844 117.527344 C 57.734375 115.382812 58.933594 113.273438 60.179688 111.1875 C 61.429688 109.105469 62.730469 107.050781 64.078125 105.03125 C 65.429688 103.011719 66.828125 101.027344 68.273438 99.074219 C 69.722656 97.125 71.214844 95.210938 72.757812 93.332031 C 74.296875 91.453125 75.882812 89.617188 77.515625 87.816406 C 79.144531 86.015625 80.820312 84.257812 82.539062 82.539062 C 84.257812 80.820312 86.015625 79.144531 87.816406 77.515625 C 89.617188 75.882812 91.453125 74.296875 93.332031 72.757812 C 95.210938 71.214844 97.125 69.722656 99.074219 68.273438 C 101.027344 66.828125 103.011719 65.429688 105.03125 64.078125 C 107.050781 62.730469 109.105469 61.429688 111.1875 60.179688 C 113.273438 58.933594 115.382812 57.734375 117.527344 56.589844 C 119.667969 55.445312 121.839844 54.351562 124.035156 53.3125 C 126.230469 52.277344 128.449219 51.292969 130.695312 50.363281 C 132.941406 49.433594 135.207031 48.558594 137.492188 47.738281 C 139.78125 46.921875 142.085938 46.160156 144.410156 45.453125 C 146.734375 44.75 149.074219 44.101562 151.433594 43.511719 C 153.789062 42.921875 156.160156 42.386719 158.542969 41.914062 C 160.925781 41.441406 163.316406 41.027344 165.71875 40.667969 C 168.121094 40.3125 170.53125 40.015625 172.949219 39.777344 C 175.367188 39.539062 177.789062 39.359375 180.214844 39.242188 C 182.644531 39.121094 185.070312 39.0625 187.5 39.0625 C 189.929688 39.0625 192.355469 39.121094 194.785156 39.242188 C 197.210938 39.359375 199.632812 39.539062 202.050781 39.777344 C 204.46875 40.015625 206.878906 40.3125 209.28125 40.667969 C 211.683594 41.027344 214.074219 41.441406 216.457031 41.914062 C 218.839844 42.386719 221.210938 42.921875 223.566406 43.511719 C 225.925781 44.101562 228.265625 44.75 230.589844 45.453125 C 232.914062 46.160156 235.21875 46.921875 237.507812 47.738281 C 239.792969 48.558594 242.058594 49.433594 244.304688 50.363281 C 246.550781 51.292969 248.769531 52.277344 250.964844 53.3125 C 253.160156 54.351562 255.332031 55.445312 257.472656 56.589844 C 259.617188 57.734375 261.726562 58.933594 263.8125 60.179688 C 265.894531 61.429688 267.949219 62.730469 269.96875 64.078125 C 271.988281 65.429688 273.972656 66.828125 275.925781 68.273438 C 277.875 69.722656 279.789062 71.214844 281.667969 72.757812 C 283.546875 74.296875 285.382812 75.882812 287.183594 77.515625 C 288.984375 79.144531 290.742188 80.820312 292.460938 82.539062 C 294.179688 84.257812 295.855469 86.015625 297.484375 87.816406 C 299.117188 89.617188 300.703125 91.453125 302.242188 93.332031 C 303.785156 95.210938 305.277344 97.125 306.726562 99.074219 C 308.171875 101.027344 309.570312 103.011719 310.921875 105.03125 C 312.269531 107.050781 313.570312 109.105469 314.820312 111.1875 C 316.066406 113.273438 317.265625 115.382812 318.410156 117.527344 C 319.554688 119.667969 320.648438 121.839844 321.6875 124.035156 C 322.722656 126.230469 323.707031 128.449219 324.636719 130.695312 C 325.566406 132.941406 326.441406 135.207031 327.261719 137.492188 C 328.078125 139.78125 328.839844 142.085938 329.546875 144.410156 C 330.25 146.734375 330.898438 149.074219 331.488281 151.433594 C 332.078125 153.789062 332.613281 156.160156 333.085938 158.542969 C 333.558594 160.925781 333.972656 163.316406 334.332031 165.71875 C 334.6875 168.121094 334.984375 170.53125 335.222656 172.949219 C 335.460938 175.367188 335.640625 177.789062 335.757812 180.214844 C 335.878906 182.644531 335.9375 185.070312 335.9375 187.5 C 335.9375 189.929688 335.878906 192.355469 335.757812 194.785156 C 335.640625 197.210938 335.460938 199.632812 335.222656 202.050781 C 334.984375 204.46875 334.6875 206.878906 334.332031 209.28125 C 333.972656 211.683594 333.558594 214.074219 333.085938 216.457031 C 332.613281 218.839844 332.078125 221.210938 331.488281 223.566406 C 330.898438 225.925781 330.25 228.265625 329.546875 230.589844 C 328.839844 232.914062 328.078125 235.21875 327.261719 237.507812 C 326.441406 239.792969 325.566406 242.058594 324.636719 244.304688 C 323.707031 246.550781 322.722656 248.769531 321.6875 250.964844 C 320.648438 253.160156 319.554688 255.332031 318.410156 257.472656 C 317.265625 259.617188 316.066406 261.726562 314.820312 263.8125 C 313.570312 265.894531 312.269531 267.949219 310.921875 269.96875 C 309.570312 271.988281 308.171875 273.972656 306.726562 275.925781 C 305.277344 277.875 303.785156 279.789062 302.242188 281.667969 C 300.703125 283.546875 299.117188 285.382812 297.484375 287.183594 C 295.855469 288.984375 294.179688 290.742188 292.460938 292.460938 C 290.742188 294.179688 288.984375 295.855469 287.183594 297.484375 C 285.382812 299.117188 283.546875 300.703125 281.667969 302.242188 C 279.789062 303.785156 277.875 305.277344 275.925781 306.726562 C 273.972656 308.171875 271.988281 309.570312 269.96875 310.921875 C 267.949219 312.269531 265.894531 313.570312 263.8125 314.820312 C 261.726562 316.066406 259.617188 317.265625 257.472656 318.410156 C 255.332031 319.554688 253.160156 320.648438 250.964844 321.6875 C 248.769531 322.722656 246.550781 323.707031 244.304688 324.636719 C 242.058594 325.566406 239.792969 326.441406 237.507812 327.261719 C 235.21875 328.078125 232.914062 328.839844 230.589844 329.546875 C 228.265625 330.25 225.925781 330.898438 223.566406 331.488281 C 221.210938 332.078125 218.839844 332.613281 216.457031 333.085938 C 214.074219 333.558594 211.683594 333.972656 209.28125 334.332031 C 206.878906 334.6875 204.46875 334.984375 202.050781 335.222656 C 199.632812 335.460938 197.210938 335.640625 194.785156 335.757812 C 192.355469 335.878906 189.929688 335.9375 187.5 335.9375 C 185.070312 335.9375 182.644531 335.878906 180.214844 335.757812 C 177.789062 335.640625 175.367188 335.460938 172.949219 335.222656 C 170.53125 334.984375 168.121094 334.6875 165.71875 334.332031 C 163.316406 333.972656 160.925781 333.558594 158.542969 333.085938 C 156.160156 332.613281 153.789062 332.078125 151.433594 331.488281 C 149.074219 330.898438 146.734375 330.25 144.410156 329.546875 C 142.085938 328.839844 139.78125 328.078125 137.492188 327.261719 C 135.207031 326.441406 132.941406 325.566406 130.695312 324.636719 C 128.449219 323.707031 126.230469 322.722656 124.035156 321.6875 C 121.839844 320.648438 119.667969 319.554688 117.527344 318.410156 C 115.382812 317.265625 113.273438 316.066406 111.1875 314.820312 C 109.105469 313.570312 107.050781 312.269531 105.03125 310.921875 C 103.011719 309.570312 101.027344 308.171875 99.074219 306.726562 C 97.125 305.277344 95.210938 303.785156 93.332031 302.242188 C 91.453125 300.703125 89.617188 299.117188 87.816406 297.484375 C 86.015625 295.855469 84.257812 294.179688 82.539062 292.460938 C 80.820312 290.742188 79.144531 288.984375 77.515625 287.183594 C 75.882812 285.382812 74.296875 283.546875 72.757812 281.667969 C 71.214844 279.789062 69.722656 277.875 68.273438 275.925781 C 66.828125 273.972656 65.429688 271.988281 64.078125 269.96875 C 62.730469 267.949219 61.429688 265.894531 60.179688 263.8125 C 58.933594 261.726562 57.734375 259.617188 56.589844 257.472656 C 55.445312 255.332031 54.351562 253.160156 53.3125 250.964844 C 52.277344 248.769531 51.292969 246.550781 50.363281 244.304688 C 49.433594 242.058594 48.558594 239.792969 47.738281 237.507812 C 46.921875 235.21875 46.160156 232.914062 45.453125 230.589844 C 44.75 228.265625 44.101562 225.925781 43.511719 223.566406 C 42.921875 221.210938 42.386719 218.839844 41.914062 216.457031 C 41.441406 214.074219 41.027344 211.683594 40.667969 209.28125 C 40.3125 206.878906 40.015625 204.46875 39.777344 202.050781 C 39.539062 199.632812 39.359375 197.210938 39.242188 194.785156 C 39.121094 192.355469 39.0625 189.929688 39.0625 187.5 Z M 187.5 7.8125 C 88.265625 7.8125 7.8125 88.265625 7.8125 187.5 C 7.8125 286.734375 88.265625 367.1875 187.5 367.1875 C 286.734375 367.1875 367.1875 286.734375 367.1875 187.5 C 367.1875 88.265625 286.734375 7.8125 187.5 7.8125 Z M 171.875 109.375 C 171.875 108.347656 171.976562 107.332031 172.175781 106.328125 C 172.375 105.320312 172.671875 104.34375 173.0625 103.394531 C 173.457031 102.449219 173.9375 101.546875 174.507812 100.695312 C 175.078125 99.839844 175.726562 99.050781 176.453125 98.328125 C 177.175781 97.601562 177.964844 96.953125 178.820312 96.382812 C 179.671875 95.8125 180.574219 95.332031 181.519531 94.9375 C 182.46875 94.546875 183.445312 94.25 184.453125 94.050781 C 185.457031 93.851562 186.472656 93.75 187.5 93.75 C 188.527344 93.75 189.542969 93.851562 190.546875 94.050781 C 191.554688 94.25 192.53125 94.546875 193.480469 94.9375 C 194.425781 95.332031 195.328125 95.8125 196.179688 96.382812 C 197.035156 96.953125 197.824219 97.601562 198.546875 98.328125 C 199.273438 99.050781 199.921875 99.839844 200.492188 100.695312 C 201.0625 101.546875 201.542969 102.449219 201.9375 103.394531 C 202.328125 104.34375 202.625 105.320312 202.824219 106.328125 C 203.023438 107.332031 203.125 108.347656 203.125 109.375 L 203.125 187.5 L 265.625 187.5 C 266.652344 187.5 267.667969 187.601562 268.671875 187.800781 C 269.679688 188 270.65625 188.296875 271.605469 188.6875 C 272.550781 189.082031 273.453125 189.5625 274.304688 190.132812 C 275.160156 190.703125 275.949219 191.351562 276.671875 192.078125 C 277.398438 192.800781 278.046875 193.589844 278.617188 194.445312 C 279.1875 195.296875 279.667969 196.199219 280.0625 197.144531 C 280.453125 198.09375 280.75 199.070312 280.949219 200.078125 C 281.148438 201.082031 281.25 202.097656 281.25 203.125 C 281.25 204.152344 281.148438 205.167969 280.949219 206.171875 C 280.75 207.179688 280.453125 208.15625 280.0625 209.105469 C 279.667969 210.050781 279.1875 210.953125 278.617188 211.804688 C 278.046875 212.660156 277.398438 213.449219 276.671875 214.171875 C 275.949219 214.898438 275.160156 215.546875 274.304688 216.117188 C 273.453125 216.6875 272.550781 217.167969 271.605469 217.5625 C 270.65625 217.953125 269.679688 218.25 268.671875 218.449219 C 267.667969 218.648438 266.652344 218.75 265.625 218.75 L 187.5 218.75 C 186.472656 218.75 185.457031 218.648438 184.453125 218.449219 C 183.445312 218.25 182.46875 217.953125 181.519531 217.5625 C 180.574219 217.167969 179.671875 216.6875 178.820312 216.117188 C 177.964844 215.546875 177.175781 214.898438 176.453125 214.171875 C 175.726562 213.449219 175.078125 212.660156 174.507812 211.804688 C 173.9375 210.953125 173.457031 210.050781 173.0625 209.105469 C 172.671875 208.15625 172.375 207.179688 172.175781 206.171875 C 171.976562 205.167969 171.875 204.152344 171.875 203.125 Z M 171.875 109.375 " fill-opacity="1" fill-rule="evenodd"/></svg>