<svg xmlns="http://www.w3.org/2000/svg" xmlns:xlink="http://www.w3.org/1999/xlink" width="500" zoomAndPan="magnify" viewBox="0 0 375 374.999991" height="500" preserveAspectRatio="xMidYMid meet" version="1.0"><defs><clipPath id="a7c77ce56f"><path d="M 143.375 143.375 L 231.875 143.375 L 231.875 231.875 L 143.375 231.875 Z M 143.375 143.375 " clip-rule="nonzero"/></clipPath></defs><path fill="#ffffff" d="M 233.433594 191.21875 C 233.433594 192.699219 233.359375 194.175781 233.214844 195.648438 C 233.070312 197.121094 232.855469 198.582031 232.566406 200.035156 C 232.277344 201.484375 231.917969 202.917969 231.488281 204.335938 C 231.058594 205.75 230.5625 207.144531 229.996094 208.507812 C 229.429688 209.875 228.796875 211.210938 228.097656 212.519531 C 227.402344 213.824219 226.640625 215.089844 225.820312 216.320312 C 224.996094 217.550781 224.117188 218.738281 223.179688 219.882812 C 222.238281 221.027344 221.246094 222.121094 220.199219 223.167969 C 219.152344 224.214844 218.058594 225.207031 216.914062 226.144531 C 215.773438 227.082031 214.585938 227.964844 213.355469 228.785156 C 212.125 229.609375 210.855469 230.367188 209.550781 231.066406 C 208.246094 231.761719 206.910156 232.394531 205.542969 232.960938 C 204.175781 233.527344 202.785156 234.027344 201.367188 234.457031 C 199.953125 234.882812 198.519531 235.242188 197.066406 235.53125 C 195.617188 235.820312 194.152344 236.039062 192.679688 236.183594 C 191.207031 236.328125 189.734375 236.402344 188.253906 236.402344 C 186.773438 236.402344 185.296875 236.328125 183.824219 236.183594 C 182.351562 236.039062 180.890625 235.820312 179.4375 235.53125 C 177.988281 235.242188 176.554688 234.882812 175.136719 234.457031 C 173.722656 234.027344 172.332031 233.527344 170.964844 232.960938 C 169.597656 232.394531 168.261719 231.761719 166.953125 231.066406 C 165.648438 230.367188 164.382812 229.609375 163.152344 228.785156 C 161.921875 227.964844 160.734375 227.082031 159.589844 226.144531 C 158.445312 225.207031 157.351562 224.214844 156.304688 223.167969 C 155.257812 222.121094 154.265625 221.027344 153.328125 219.882812 C 152.390625 218.738281 151.507812 217.550781 150.6875 216.320312 C 149.863281 215.089844 149.105469 213.824219 148.40625 212.519531 C 147.710938 211.214844 147.078125 209.875 146.511719 208.511719 C 145.945312 207.144531 145.449219 205.75 145.019531 204.335938 C 144.589844 202.917969 144.230469 201.484375 143.941406 200.035156 C 143.652344 198.582031 143.433594 197.121094 143.289062 195.648438 C 143.144531 194.175781 143.074219 192.699219 143.074219 191.21875 C 143.074219 189.738281 143.144531 188.265625 143.289062 186.792969 C 143.433594 185.320312 143.652344 183.855469 143.941406 182.40625 C 144.230469 180.953125 144.589844 179.519531 145.019531 178.105469 C 145.449219 176.6875 145.945312 175.296875 146.511719 173.929688 C 147.078125 172.5625 147.710938 171.226562 148.40625 169.921875 C 149.105469 168.617188 149.863281 167.347656 150.6875 166.117188 C 151.507812 164.886719 152.390625 163.703125 153.328125 162.558594 C 154.265625 161.414062 155.257812 160.320312 156.304688 159.273438 C 157.351562 158.226562 158.445312 157.234375 159.589844 156.292969 C 160.734375 155.355469 161.921875 154.476562 163.152344 153.652344 C 164.382812 152.832031 165.648438 152.070312 166.953125 151.375 C 168.261719 150.675781 169.597656 150.042969 170.964844 149.476562 C 172.332031 148.910156 173.722656 148.414062 175.136719 147.984375 C 176.554688 147.554688 177.988281 147.195312 179.4375 146.90625 C 180.890625 146.617188 182.351562 146.402344 183.824219 146.257812 C 185.296875 146.113281 186.773438 146.039062 188.253906 146.039062 C 189.734375 146.039062 191.207031 146.113281 192.679688 146.257812 C 194.152344 146.402344 195.617188 146.617188 197.066406 146.90625 C 198.519531 147.195312 199.953125 147.554688 201.367188 147.984375 C 202.785156 148.414062 204.175781 148.910156 205.542969 149.476562 C 206.910156 150.042969 208.246094 150.675781 209.550781 151.375 C 210.855469 152.070312 212.125 152.832031 213.355469 153.652344 C 214.585938 154.476562 215.773438 155.355469 216.914062 156.292969 C 218.058594 157.234375 219.152344 158.226562 220.199219 159.273438 C 221.246094 160.320312 222.238281 161.414062 223.179688 162.558594 C 224.117188 163.703125 224.996094 164.886719 225.820312 166.117188 C 226.640625 167.347656 227.402344 168.617188 228.097656 169.921875 C 228.796875 171.226562 229.429688 172.5625 229.996094 173.929688 C 230.5625 175.296875 231.058594 176.6875 231.488281 178.105469 C 231.917969 179.519531 232.277344 180.953125 232.566406 182.40625 C 232.855469 183.855469 233.070312 185.320312 233.214844 186.792969 C 233.359375 188.265625 233.433594 189.738281 233.433594 191.21875 Z M 233.433594 191.21875 " fill-opacity="1" fill-rule="nonzero"/><path fill="#ffffff" d="M 128.011719 191.21875 C 128.011719 182.5 129.953125 174.261719 133.3125 166.777344 C 97.785156 151.460938 85.136719 134.308594 75.574219 121.25 C 67.652344 110.421875 60.796875 101.070312 45.089844 101.070312 C 36.460938 101.070312 24.441406 104.488281 16.175781 120.769531 C 0.707031 151.234375 7.546875 211.097656 23.945312 233.523438 C 31.507812 243.871094 42.546875 249.804688 56.761719 251.175781 C 58.824219 251.371094 60.917969 251.476562 63.058594 251.476562 C 87.875 251.476562 116.898438 238.539062 138.207031 224.699219 C 131.777344 215.105469 128.011719 203.597656 128.011719 191.21875 Z M 128.011719 191.21875 " fill-opacity="1" fill-rule="nonzero"/><path fill="#ffffff" d="M 188.253906 130.980469 C 197.046875 130.980469 205.347656 132.980469 212.890625 136.386719 C 228.207031 100.859375 245.363281 88.207031 258.433594 78.644531 C 269.261719 70.707031 278.613281 63.871094 278.613281 48.148438 C 278.613281 39.519531 275.195312 27.5 258.914062 19.230469 C 228.402344 3.75 168.585938 10.601562 146.160156 27.003906 C 135.828125 34.546875 129.894531 45.574219 128.523438 59.773438 C 126.007812 85.753906 139.894531 117.996094 154.863281 141.128906 C 164.441406 134.742188 175.902344 130.980469 188.253906 130.980469 Z M 188.253906 130.980469 " fill-opacity="1" fill-rule="nonzero"/><path fill="#ffffff" d="M 352.546875 149.125 C 345 138.78125 333.960938 132.847656 319.742188 131.492188 C 293.960938 129.050781 261.582031 142.921875 238.375 157.90625 C 244.742188 167.453125 248.492188 178.902344 248.492188 191.21875 C 248.492188 200 246.507812 208.296875 243.117188 215.828125 C 278.691406 231.144531 291.371094 248.328125 300.933594 261.402344 C 308.871094 272.230469 315.707031 281.582031 331.414062 281.582031 C 340.046875 281.582031 352.078125 278.164062 360.347656 261.867188 C 375.796875 231.402344 368.960938 171.550781 352.546875 149.125 Z M 352.546875 149.125 " fill-opacity="1" fill-rule="nonzero"/><path fill="#ffffff" d="M 188.253906 251.460938 C 179.472656 251.460938 171.175781 249.472656 163.644531 246.085938 C 148.328125 281.65625 131.144531 294.335938 118.074219 303.902344 C 107.242188 311.835938 97.890625 318.675781 97.890625 334.382812 C 97.890625 343.011719 101.308594 355.03125 117.589844 363.296875 C 129.488281 369.335938 145.828125 371.972656 162.695312 371.972656 C 189.050781 371.972656 216.65625 365.527344 230.347656 355.511719 C 240.691406 347.96875 246.625 336.925781 247.980469 322.710938 C 250.480469 296.703125 236.597656 264.441406 221.597656 241.324219 C 212.046875 247.710938 200.585938 251.460938 188.253906 251.460938 Z M 188.253906 251.460938 " fill-opacity="1" fill-rule="nonzero"/><g clip-path="url(#a7c77ce56f)"><path fill="#ffffff" d="M 229.457031 185.355469 L 223.519531 185.355469 L 226.851562 181.46875 C 227.605469 180.585938 227.507812 179.261719 226.625 178.507812 C 225.742188 177.753906 224.417969 177.855469 223.660156 178.734375 L 217.992188 185.355469 L 210.839844 185.355469 L 217.945312 176.828125 C 218.445312 176.226562 218.570312 175.398438 218.269531 174.675781 C 217.972656 173.953125 217.296875 173.460938 216.515625 173.390625 L 205.472656 172.402344 L 210.527344 167.34375 L 219.21875 168.011719 C 219.273438 168.015625 219.328125 168.019531 219.382812 168.019531 C 220.472656 168.019531 221.390625 167.183594 221.476562 166.082031 C 221.566406 164.921875 220.699219 163.914062 219.542969 163.824219 L 214.441406 163.433594 L 218.636719 159.238281 C 219.457031 158.417969 219.457031 157.09375 218.636719 156.269531 C 217.8125 155.449219 216.484375 155.449219 215.667969 156.269531 L 211.472656 160.464844 L 211.082031 155.363281 C 210.992188 154.207031 209.980469 153.339844 208.824219 153.429688 C 207.667969 153.519531 206.804688 154.53125 206.894531 155.6875 L 207.5625 164.378906 L 202.503906 169.433594 L 201.515625 158.390625 C 201.445312 157.609375 200.953125 156.933594 200.230469 156.636719 C 199.511719 156.335938 198.683594 156.464844 198.078125 156.960938 L 189.550781 164.066406 L 189.550781 156.914062 L 196.171875 151.246094 C 197.054688 150.488281 197.152344 149.164062 196.398438 148.28125 C 195.644531 147.398438 194.316406 147.296875 193.4375 148.054688 L 189.550781 151.386719 L 189.550781 145.449219 C 189.550781 144.289062 188.613281 143.347656 187.453125 143.347656 C 186.292969 143.347656 185.355469 144.289062 185.355469 145.449219 L 185.355469 151.386719 L 181.46875 148.054688 C 180.589844 147.300781 179.261719 147.402344 178.507812 148.28125 C 177.753906 149.164062 177.851562 150.488281 178.734375 151.246094 L 185.355469 156.914062 L 185.355469 164.066406 L 176.828125 156.960938 C 176.226562 156.464844 175.402344 156.335938 174.675781 156.636719 C 173.953125 156.933594 173.460938 157.609375 173.390625 158.390625 L 172.402344 169.433594 L 167.34375 164.378906 L 168.011719 155.6875 C 168.101562 154.53125 167.238281 153.519531 166.082031 153.429688 C 164.941406 153.328125 163.914062 154.207031 163.824219 155.363281 L 163.433594 160.464844 L 159.238281 156.269531 C 158.417969 155.449219 157.09375 155.449219 156.269531 156.269531 C 155.449219 157.09375 155.449219 158.417969 156.269531 159.238281 L 160.464844 163.433594 L 155.363281 163.824219 C 154.207031 163.914062 153.339844 164.921875 153.429688 166.082031 C 153.515625 167.183594 154.433594 168.019531 155.519531 168.019531 C 155.578125 168.019531 155.632812 168.015625 155.6875 168.011719 L 164.378906 167.34375 L 169.433594 172.402344 L 158.390625 173.390625 C 157.609375 173.460938 156.933594 173.953125 156.636719 174.675781 C 156.335938 175.398438 156.460938 176.226562 156.960938 176.828125 L 164.066406 185.355469 L 156.917969 185.355469 L 151.246094 178.734375 C 150.488281 177.851562 149.160156 177.753906 148.28125 178.507812 C 147.398438 179.261719 147.300781 180.585938 148.054688 181.46875 L 151.386719 185.355469 L 145.449219 185.355469 C 144.289062 185.355469 143.347656 186.292969 143.347656 187.453125 C 143.347656 188.613281 144.289062 189.550781 145.449219 189.550781 L 151.386719 189.550781 L 148.054688 193.4375 C 147.300781 194.320312 147.398438 195.644531 148.28125 196.398438 C 148.679688 196.738281 149.164062 196.90625 149.648438 196.90625 C 150.238281 196.90625 150.828125 196.65625 151.246094 196.171875 L 156.917969 189.550781 L 164.066406 189.550781 L 156.960938 198.078125 C 156.460938 198.679688 156.335938 199.507812 156.636719 200.230469 C 156.933594 200.953125 157.609375 201.445312 158.390625 201.515625 L 169.433594 202.503906 L 164.378906 207.5625 L 155.6875 206.894531 C 154.539062 206.800781 153.519531 207.667969 153.429688 208.824219 C 153.339844 209.984375 154.207031 210.992188 155.363281 211.082031 L 160.464844 211.472656 L 156.269531 215.667969 C 155.449219 216.484375 155.449219 217.8125 156.269531 218.636719 C 156.679688 219.042969 157.21875 219.25 157.753906 219.25 C 158.292969 219.25 158.832031 219.042969 159.238281 218.636719 L 163.433594 214.441406 L 163.824219 219.542969 C 163.910156 220.644531 164.828125 221.484375 165.917969 221.484375 C 165.972656 221.484375 166.027344 221.480469 166.082031 221.476562 C 167.238281 221.386719 168.101562 220.378906 168.011719 219.21875 L 167.34375 210.527344 L 172.402344 205.472656 L 173.390625 216.515625 C 173.460938 217.296875 173.953125 217.972656 174.675781 218.269531 C 175.402344 218.570312 176.226562 218.445312 176.828125 217.945312 L 185.355469 210.839844 L 185.355469 217.988281 L 178.734375 223.660156 C 177.851562 224.414062 177.753906 225.742188 178.507812 226.625 C 179.261719 227.503906 180.589844 227.605469 181.46875 226.851562 L 185.355469 223.519531 L 185.355469 229.457031 C 185.355469 230.617188 186.292969 231.558594 187.453125 231.558594 C 188.613281 231.558594 189.550781 230.617188 189.550781 229.457031 L 189.550781 223.519531 L 193.4375 226.851562 C 193.832031 227.191406 194.320312 227.359375 194.804688 227.359375 C 195.394531 227.359375 195.984375 227.109375 196.398438 226.625 C 197.152344 225.742188 197.054688 224.414062 196.171875 223.660156 L 189.550781 217.988281 L 189.550781 210.839844 L 198.078125 217.945312 C 198.464844 218.261719 198.941406 218.429688 199.425781 218.429688 C 199.699219 218.429688 199.972656 218.378906 200.230469 218.269531 C 200.953125 217.972656 201.445312 217.296875 201.515625 216.515625 L 202.503906 205.472656 L 207.5625 210.527344 L 206.894531 219.21875 C 206.804688 220.378906 207.667969 221.386719 208.824219 221.476562 C 208.878906 221.480469 208.933594 221.484375 208.988281 221.484375 C 210.074219 221.484375 210.996094 220.644531 211.082031 219.542969 L 211.472656 214.441406 L 215.667969 218.636719 C 216.074219 219.042969 216.613281 219.25 217.152344 219.25 C 217.6875 219.25 218.226562 219.042969 218.636719 218.636719 C 219.457031 217.8125 219.457031 216.484375 218.636719 215.667969 L 214.441406 211.472656 L 219.542969 211.082031 C 220.699219 210.992188 221.566406 209.984375 221.476562 208.824219 C 221.386719 207.667969 220.375 206.804688 219.21875 206.894531 L 210.527344 207.5625 L 205.472656 202.503906 L 216.515625 201.515625 C 217.296875 201.445312 217.972656 200.953125 218.269531 200.230469 C 218.570312 199.507812 218.445312 198.679688 217.945312 198.078125 L 210.839844 189.550781 L 217.992188 189.550781 L 223.660156 196.171875 C 224.078125 196.65625 224.667969 196.90625 225.257812 196.90625 C 225.742188 196.90625 226.226562 196.738281 226.625 196.398438 C 227.507812 195.644531 227.605469 194.320312 226.851562 193.4375 L 223.519531 189.550781 L 229.457031 189.550781 C 230.617188 189.550781 231.558594 188.613281 231.558594 187.453125 C 231.558594 186.292969 230.617188 185.355469 229.457031 185.355469 Z M 212.152344 177.214844 L 205.371094 185.355469 L 199.867188 185.355469 C 199.554688 183.480469 198.828125 181.714844 197.71875 180.15625 L 201.601562 176.273438 Z M 187.453125 195.851562 C 185.214844 195.851562 183.097656 194.980469 181.511719 193.410156 C 179.925781 191.808594 179.054688 189.6875 179.054688 187.453125 C 179.054688 185.214844 179.925781 183.097656 181.496094 181.511719 C 183.097656 179.925781 185.214844 179.054688 187.453125 179.054688 C 189.6875 179.054688 191.808594 179.925781 193.394531 181.496094 C 194.980469 183.097656 195.851562 185.214844 195.851562 187.453125 C 195.851562 189.6875 194.980469 191.808594 193.410156 193.394531 C 191.808594 194.980469 189.6875 195.851562 187.453125 195.851562 Z M 197.691406 162.753906 L 198.628906 173.304688 L 194.75 177.183594 C 193.195312 176.082031 191.429688 175.351562 189.550781 175.035156 L 189.550781 169.535156 Z M 177.214844 162.753906 L 185.355469 169.535156 L 185.355469 175.035156 C 183.480469 175.351562 181.714844 176.078125 180.15625 177.1875 L 176.273438 173.304688 Z M 162.753906 177.214844 L 173.304688 176.273438 L 177.183594 180.152344 C 176.082031 181.710938 175.351562 183.476562 175.035156 185.355469 L 169.535156 185.355469 Z M 162.753906 197.691406 L 169.535156 189.550781 L 175.035156 189.550781 C 175.351562 191.425781 176.078125 193.191406 177.1875 194.75 L 173.304688 198.628906 Z M 177.214844 212.152344 L 176.273438 201.601562 L 180.152344 197.722656 C 181.710938 198.824219 183.476562 199.554688 185.355469 199.867188 L 185.355469 205.371094 Z M 197.691406 212.152344 L 189.550781 205.371094 L 189.550781 199.867188 C 191.425781 199.554688 193.191406 198.828125 194.75 197.71875 L 198.628906 201.601562 Z M 212.152344 197.691406 L 201.601562 198.628906 L 197.722656 194.75 C 198.824219 193.195312 199.554688 191.429688 199.867188 189.550781 L 205.371094 189.550781 L 212.152344 197.691406 " fill-opacity="1" fill-rule="nonzero"/></g></svg>