<svg xmlns="http://www.w3.org/2000/svg" xmlns:xlink="http://www.w3.org/1999/xlink" width="500" zoomAndPan="magnify" viewBox="0 0 375 374.999991" height="500" preserveAspectRatio="xMidYMid meet" version="1.0"><path fill="#ffffff" d="M 223.210938 0 L 151.78125 0 C 76.96875 0 16.105469 60.851562 16.105469 135.648438 L 16.105469 199.992188 C 16.105469 255.695312 50.332031 305.757812 101.800781 326.144531 L 101.800781 367.859375 C 101.800781 370.6875 103.464844 373.242188 106.050781 374.386719 C 106.976562 374.800781 107.964844 375 108.941406 375 C 110.675781 375 112.398438 374.363281 113.734375 373.152344 L 155.144531 335.644531 L 223.210938 335.644531 C 298.023438 335.644531 358.890625 274.792969 358.890625 199.992188 L 358.890625 135.648438 C 358.890625 60.851562 298.023438 0 223.210938 0 Z M 344.605469 199.992188 C 344.605469 266.914062 290.152344 321.359375 223.210938 321.359375 L 152.390625 321.359375 C 150.617188 321.359375 148.910156 322.019531 147.597656 323.210938 L 116.082031 351.753906 L 116.082031 321.195312 C 116.082031 318.167969 114.175781 315.46875 111.320312 314.46875 C 62.914062 297.351562 30.386719 251.347656 30.386719 199.992188 L 30.386719 135.648438 C 30.386719 68.726562 84.847656 14.28125 151.78125 14.28125 L 223.210938 14.28125 C 290.152344 14.28125 344.605469 68.726562 344.605469 135.648438 Z M 344.605469 199.992188 " fill-opacity="1" fill-rule="nonzero"/><path fill="#ffffff" d="M 281.875 217.761719 L 237.984375 189.253906 C 233.1875 186.132812 227.472656 185.074219 221.882812 186.230469 C 216.285156 187.410156 211.46875 190.71875 208.347656 195.539062 L 206.285156 198.707031 C 187.289062 192.429688 166.34375 184.410156 153.804688 148.113281 L 158.996094 143.597656 C 167.90625 135.851562 168.84375 122.296875 161.09375 113.367188 L 126.757812 73.871094 C 124.175781 70.890625 119.660156 70.585938 116.683594 73.164062 L 95.121094 91.902344 C 76.210938 108.339844 85.046875 132.65625 87.953125 140.648438 C 88.082031 141.007812 88.238281 141.347656 88.425781 141.683594 C 89.175781 143.027344 107.078125 174.976562 135.992188 204.429688 C 165.023438 234 217.433594 261.308594 219.039062 262.101562 C 225.023438 265.988281 231.757812 267.851562 238.421875 267.851562 C 250.117188 267.851562 261.589844 262.117188 268.429688 251.605469 L 283.984375 227.652344 C 286.125 224.332031 285.183594 219.910156 281.875 217.761719 Z M 256.445312 243.820312 C 250.011719 253.734375 236.714844 256.546875 226.21875 249.777344 C 225.695312 249.503906 173.628906 222.390625 146.183594 194.429688 C 120.53125 168.300781 103.5 139.269531 101.179688 135.222656 C 95.523438 119.359375 96.523438 109.613281 104.492188 102.6875 L 120.667969 88.632812 L 150.320312 122.738281 C 152.953125 125.765625 152.648438 130.195312 149.632812 132.816406 L 140.871094 140.425781 C 138.734375 142.285156 137.890625 145.21875 138.726562 147.917969 C 153.667969 196.464844 182.71875 206 203.929688 212.960938 L 207.019531 213.984375 C 210.113281 215.027344 213.5 213.832031 215.269531 211.105469 L 220.332031 203.308594 C 221.375 201.695312 222.976562 200.601562 224.832031 200.207031 C 226.695312 199.808594 228.59375 200.179688 230.207031 201.230469 L 268.117188 225.84375 Z M 256.445312 243.820312 " fill-opacity="1" fill-rule="nonzero"/><path fill="#ffffff" d="M 203.800781 116.027344 C 200 114.933594 196.050781 117.140625 194.972656 120.9375 C 193.894531 124.730469 196.09375 128.679688 199.886719 129.757812 C 210.527344 132.785156 219.003906 141.277344 222.003906 151.925781 C 222.890625 155.066406 225.753906 157.132812 228.875 157.132812 C 229.515625 157.132812 230.167969 157.046875 230.816406 156.867188 C 234.609375 155.796875 236.820312 151.855469 235.75 148.054688 C 231.414062 132.671875 219.167969 120.394531 203.800781 116.027344 Z M 203.800781 116.027344 " fill-opacity="1" fill-rule="nonzero"/><path fill="#ffffff" d="M 258.144531 158.675781 C 258.789062 158.675781 259.4375 158.589844 260.089844 158.410156 C 263.886719 157.339844 266.09375 153.390625 265.023438 149.597656 C 256.597656 119.726562 232.824219 95.902344 202.972656 87.402344 C 199.179688 86.308594 195.230469 88.53125 194.152344 92.324219 C 193.074219 96.117188 195.273438 100.066406 199.066406 101.144531 C 224.179688 108.285156 244.183594 128.34375 251.277344 153.476562 C 252.167969 156.617188 255.023438 158.675781 258.144531 158.675781 Z M 258.144531 158.675781 " fill-opacity="1" fill-rule="nonzero"/><path fill="#ffffff" d="M 199.894531 54.144531 C 196.09375 53.054688 192.144531 55.261719 191.066406 59.066406 C 189.988281 62.859375 192.1875 66.808594 195.980469 67.886719 C 238.535156 79.992188 272.4375 113.96875 284.449219 156.554688 C 285.332031 159.695312 288.195312 161.757812 291.316406 161.757812 C 291.960938 161.757812 292.609375 161.671875 293.261719 161.496094 C 297.050781 160.421875 299.265625 156.472656 298.195312 152.683594 C 284.847656 105.355469 247.183594 67.605469 199.894531 54.144531 Z M 199.894531 54.144531 " fill-opacity="1" fill-rule="nonzero"/></svg>