<svg xmlns="http://www.w3.org/2000/svg" xmlns:xlink="http://www.w3.org/1999/xlink" width="500" zoomAndPan="magnify" viewBox="0 0 375 374.999991" height="500" preserveAspectRatio="xMidYMid meet" version="1.0"><path fill="#ffffff" d="M 178.101562 0.0585938 C 148.007812 0.421875 83.308594 5.367188 47.121094 38.566406 C 20.203125 65.238281 10.804688 104.671875 9.703125 153.433594 C 8.789062 202.019531 7.6875 293.261719 95.636719 318.105469 L 95.636719 355.945312 C 95.636719 355.945312 95.085938 371.085938 105.09375 374.191406 C 117.421875 378.09375 124.441406 366.445312 136.160156 353.929688 L 158.015625 329.214844 C 218.191406 334.21875 264.28125 322.6875 269.589844 320.976562 C 281.800781 317.074219 350.578125 308.285156 361.816406 217.03125 C 373.347656 122.789062 356.203125 63.410156 325.253906 36.550781 L 325.066406 36.550781 C 315.726562 27.949219 278.191406 0.597656 194.332031 0.292969 C 194.332031 0.292969 188.109375 -0.128906 178.101562 0.046875 Z M 179.132812 26.554688 C 187.675781 26.496094 192.867188 26.859375 192.867188 26.859375 C 263.847656 27.046875 297.726562 48.410156 305.71875 55.605469 C 331.78125 77.941406 345.210938 131.472656 335.378906 210.152344 C 326.039062 286.441406 270.257812 291.269531 259.933594 294.5625 C 255.539062 295.96875 214.945312 305.976562 163.804688 302.683594 C 163.804688 302.683594 125.71875 348.644531 113.8125 360.480469 C 111.925781 362.554688 109.722656 363.164062 108.316406 362.859375 C 106.300781 362.367188 105.691406 359.871094 105.808594 356.449219 L 106.171875 293.648438 C 31.582031 273.023438 35.976562 195.199219 36.773438 154.546875 C 37.6875 113.894531 45.316406 80.636719 68.027344 58.113281 C 98.601562 30.46875 153.539062 26.742188 179.109375 26.554688 Z M 184.757812 67.195312 C 182.191406 67.136719 180.058594 69.269531 180.058594 71.835938 C 180.058594 74.460938 182.191406 76.535156 184.757812 76.535156 C 208.253906 76.113281 230.90625 85.019531 247.746094 101.378906 C 264.773438 117.914062 273.070312 140.132812 273.386719 169.183594 C 273.386719 171.75 275.460938 173.882812 278.085938 173.882812 L 278.085938 173.695312 C 280.652344 173.695312 282.785156 171.621094 282.785156 169.054688 C 283.945312 141.410156 273.691406 114.550781 254.460938 94.652344 C 235.910156 76.523438 212.402344 67.183594 184.757812 67.183594 Z M 122.988281 77.941406 C 119.695312 77.449219 116.273438 78.128906 113.402344 79.828125 L 113.15625 79.828125 C 106.804688 83.554688 100.886719 88.253906 95.273438 94.535156 C 90.996094 99.480469 88.675781 104.484375 88.066406 109.300781 C 87.703125 112.171875 87.949219 115.042969 88.804688 117.785156 L 89.109375 117.972656 C 93.925781 132.128906 100.21875 145.746094 107.90625 158.566406 C 117.796875 176.566406 129.996094 193.230469 144.164062 208.125 L 144.585938 208.734375 L 145.253906 209.226562 L 145.675781 209.71875 L 146.167969 210.140625 C 161.121094 224.367188 177.785156 236.566406 195.855469 246.574219 C 216.480469 257.800781 228.996094 263.109375 236.507812 265.3125 L 236.507812 265.429688 C 238.710938 266.097656 240.714844 266.402344 242.730469 266.402344 C 249.140625 265.910156 255.1875 263.355469 259.945312 259.019531 C 266.050781 253.523438 270.867188 247.488281 274.476562 241.078125 L 274.476562 240.960938 C 278.074219 234.1875 276.855469 227.777344 271.664062 223.441406 C 261.292969 214.347656 249.996094 206.285156 238.089844 199.335938 C 230.097656 195 221.976562 197.625 218.683594 202.019531 L 211.664062 210.867188 C 208.066406 215.261719 201.527344 214.652344 201.527344 214.652344 L 201.339844 214.769531 C 152.578125 202.3125 139.570312 152.941406 139.570312 152.941406 C 139.570312 152.941406 138.960938 146.226562 143.472656 142.804688 L 152.261719 135.726562 C 156.46875 132.304688 159.398438 124.195312 154.886719 116.191406 C 147.984375 104.226562 139.933594 93 130.839844 82.617188 C 128.882812 80.179688 126.082031 78.527344 122.964844 77.917969 Z M 192.867188 91.863281 C 186.644531 91.863281 186.644531 101.261719 192.925781 101.261719 C 208.546875 101.507812 223.441406 107.976562 234.304688 119.203125 C 244.195312 130.125 249.316406 144.65625 248.34375 159.363281 C 248.402344 161.929688 250.476562 164.003906 253.042969 164.003906 L 253.230469 164.25 C 255.796875 164.25 257.929688 162.117188 257.929688 159.550781 C 258.351562 140.929688 252.5625 125.308594 241.207031 112.792969 C 229.792969 100.277344 213.867188 93.257812 193.535156 91.863281 C 193.289062 91.863281 193.113281 91.863281 192.867188 91.863281 Z M 200.566406 117.128906 C 194.15625 116.941406 193.910156 126.527344 200.261719 126.714844 C 215.707031 127.511719 223.207031 135.316406 224.191406 151.371094 C 224.25 153.9375 226.324219 155.953125 228.832031 155.953125 L 229.019531 155.953125 C 231.644531 155.835938 233.71875 153.574219 233.53125 150.949219 C 232.429688 130.019531 221.015625 118.230469 200.753906 117.140625 C 200.695312 117.140625 200.636719 117.140625 200.566406 117.140625 Z M 200.566406 117.128906 " fill-opacity="1" fill-rule="nonzero"/></svg>