<?xml version="1.0" encoding="UTF-8"?>
<!DOCTYPE svg PUBLIC "-//W3C//DTD SVG 1.1//EN" "http://www.w3.org/Graphics/SVG/1.1/DTD/svg11.dtd">
<svg xmlns="http://www.w3.org/2000/svg" version="1.1" width="50px" height="50px" style="shape-rendering:geometricPrecision; text-rendering:geometricPrecision; image-rendering:optimizeQuality; fill-rule:evenodd; clip-rule:evenodd" xmlns:xlink="http://www.w3.org/1999/xlink">
<g><path style="opacity:0.942" fill="#fefffe" d="M 8.5,8.5 C 19.8965,8.09075 31.2298,8.59075 42.5,10C 43.8932,11.1711 44.7265,12.6711 45,14.5C 46.8111,22.2575 46.4778,29.9242 44,37.5C 42.8289,38.8932 41.3289,39.7265 39.5,40C 28.0944,40.9331 16.761,40.5997 5.5,39C 4.29857,38.0975 3.46524,36.9308 3,35.5C 2.33333,27.8333 2.33333,20.1667 3,12.5C 4.49981,10.5313 6.33314,9.19796 8.5,8.5 Z M 18.5,18.5 C 22.137,19.9855 25.4704,21.9855 28.5,24.5C 25.5866,26.8749 22.4199,28.8749 19,30.5C 18.5012,26.5138 18.3345,22.5138 18.5,18.5 Z"/></g>
</svg>
